<svg id="Layer_1" data-name="Layer 1" xmlns="http://www.w3.org/2000/svg" viewBox="0 0 288 288"><defs><style>.cls-1{fill:#25ae94;}.cls-2{fill:#198a89;}.cls-3{fill:#43beaf;}.cls-4{fill:#60c5bb;}.cls-5{fill:#7dccc1;}.cls-6{fill:#8cd2ca;}.cls-7{fill:#f3faf9;}</style></defs><title>green-crystal</title><path class="cls-1" d="M241.1,233.3c4.88-4.87,8.87-14.5,8.87-21.4V74.69c0-6.9-4-16.53-8.87-21.4L196.68,8.86C191.81,4,182.18,0,175.28,0H113.09c-6.9,0-16.53,4-21.4,8.86L47.26,53.29c-4.87,4.87-8.86,14.5-8.86,21.4V211.9c0,6.9,4,16.53,8.86,21.4l44.43,44.43c4.87,4.87,14.5,8.86,21.4,8.86h62.19c6.9,0,16.53-4,21.4-8.86Z"/><path class="cls-2" d="M85.86,207.53V80.91L41.57,62A32.51,32.51,0,0,0,38.4,74.69V211.9c0,5.58,2.63,12.91,6.21,18.11Z"/><path class="cls-3" d="M175.28,0H113.06a31.8,31.8,0,0,0-11.7,2.73l16.39,39.55,2.33,7.2,48.27-4.92,2.27-2.28L187,2.72A31.81,31.81,0,0,0,175.28,0Z"/><path class="cls-4" d="M113.06,286.59h62.22A31.81,31.81,0,0,0,187,283.87l-16.39-39.56L168.35,242l-48.27-4.92-2.33,7.2-16.39,39.55A31.6,31.6,0,0,0,113.06,286.59Z"/><path class="cls-1" d="M91.69,8.86,69.48,31.08,47.26,53.29A31.67,31.67,0,0,0,41,63.23L80.68,79.67l6.74,3.44L118.07,45.5V42.28L101.63,2.6A31.5,31.5,0,0,0,91.69,8.86Z"/><path class="cls-3" d="M80.68,206.93,41,223.36a31.67,31.67,0,0,0,6.26,9.94l22.22,22.21,22.21,22.22a31.5,31.5,0,0,0,9.94,6.26l16.44-39.68v-3.22L87.42,203.48Z"/><path class="cls-5" d="M241.14,53.32,196.66,8.84a31.59,31.59,0,0,0-9.92-6.24L170.3,42.28V45.5l30.64,37.61,6.74-3.44,39.68-16.44A31.68,31.68,0,0,0,241.14,53.32Z"/><path class="cls-2" d="M196.66,277.75l44.48-44.48a31.68,31.68,0,0,0,6.22-9.91l-39.68-16.43-6.74-3.45L170.3,241.09v3.22L186.74,284A31.59,31.59,0,0,0,196.66,277.75Z"/><polygon class="cls-6" points="118.07 244.31 80.68 206.93 80.68 79.67 118.07 42.28 170.3 42.28 207.68 79.66 207.68 206.93 170.3 244.31 118.07 244.31"/><polygon class="cls-7" points="207.68 86.2 80.68 178.02 80.68 206.93 89.83 216.07 207.68 130.87 207.68 86.2"/><polygon class="cls-7" points="207.68 171.09 207.68 153.91 103.2 229.45 113.18 239.41 207.68 171.09"/></svg>