<svg id="Layer_3" data-name="Layer 3" xmlns="http://www.w3.org/2000/svg" viewBox="0 0 288 288"><defs><style>.cls-1{fill:#ffc553;}.cls-2{fill:#ec8723;}.cls-2,.cls-3{opacity:0.5;}.cls-3{fill:#c52826;}.cls-4{fill:#fce21c;}.cls-5{fill:#fff;}</style></defs><title>orange-crystal</title><path class="cls-1" d="M8.07,263c-6.89,0-9.71-4.88-6.26-10.84L137.74,16.75c3.45-6,9.08-6,12.52,0L286.19,252.19c3.44,6,.63,10.84-6.26,10.84Z"/><path class="cls-2" d="M144,124.92V12.27c-2.27,0-4.54,1.49-6.26,4.48l-68,117.72-68,117.72c-1.72,3-1.88,5.69-.74,7.65L73.63,218Z"/><path class="cls-3" d="M214.37,217.94,98.62,203.52,1.07,259.84c1.13,2,3.56,3.19,7,3.19H280c3.42,0,5.83-1.23,7-3.19Z"/><polygon class="cls-4" points="73.63 217.95 144 96.06 214.37 217.95 73.63 217.95"/><polygon class="cls-5" points="184.57 166.34 168.2 137.99 85.11 198.06 73.63 217.95 113.18 217.95 184.57 166.34"/><polygon class="cls-5" points="199.31 191.86 193.01 180.96 141.85 217.95 163.22 217.95 199.31 191.86"/></svg>