<svg id="Layer_4" data-name="Layer 4" xmlns="http://www.w3.org/2000/svg" viewBox="0 0 288 288"><defs><style>.cls-1{fill:#9e7ab7;}.cls-2{fill:#f0bbd6;}.cls-3{fill:#8267ad;}.cls-4{fill:#7e5da7;}.cls-5{fill:#bd88bc;}.cls-6{fill:#7a52a1;}.cls-7{fill:#784ea0;}</style></defs><title>purple-crystal</title><path class="cls-1" d="M284.49,137.5a8.58,8.58,0,0,1,0,12.12l-134,134a8.58,8.58,0,0,1-12.13,0l-134-134a8.59,8.59,0,0,1,0-12.13l134-134a8.56,8.56,0,0,1,12.12,0Z"/><path class="cls-2" d="M228.76,81.76,77.33,191.24l-8.7-12L218.13,71.13ZM203.87,56.88,176.24,29.24,49.16,121.11l22.61,31.27Z"/><path class="cls-3" d="M77.53,222.76l60.85,60.85a8.58,8.58,0,0,0,12.13,0l86-86,20.26-54H39.36Z"/><path class="cls-4" d="M139.93,2.31a8.4,8.4,0,0,0-1.54,1.2l-134,134a8.56,8.56,0,0,0-2.51,6.06H94.27Z"/><path class="cls-5" d="M194.61,143.56H287a8.56,8.56,0,0,0-2.51-6.06l-134-134A8.49,8.49,0,0,0,149,2.3Z"/><path class="cls-6" d="M138.38,283.61a8.37,8.37,0,0,0,1.55,1.2L94.27,143.56H1.88a8.6,8.6,0,0,0,2.51,6.07Z"/><path class="cls-7" d="M194.61,143.56,149,284.81a8.89,8.89,0,0,0,1.56-1.2l134-134a8.56,8.56,0,0,0,2.51-6.06Z"/></svg>