<svg xmlns="http://www.w3.org/2000/svg" viewBox="0 0 287.71 232.19"><defs><style>.cls-1{isolation:isolate;}.cls-2{fill:#f6aece;}.cls-3{fill:#fdf5a9;mix-blend-mode:overlay;}.cls-4{fill:#eb6092;}.cls-5{fill:#f282ae;}.cls-6{fill:#dd4c80;}.cls-7{fill:#1a74bb;fill-opacity:0.1;}.cls-8{fill:#ed5a9e;}.cls-9{fill:#f179af;}</style></defs><title>red-crystal</title><g class="cls-1"><g id="Layer_2" data-name="Layer 2"><path class="cls-2" d="M252.65,43.06C249.53,36.65,241.13,31.4,234,31.4H53.72c-7.14,0-15.54,5.25-18.67,11.66L1.6,111.6C-1.53,118,.07,127.35,5.15,132.36L134.61,259.84a13.26,13.26,0,0,0,18.48,0L282.55,132.36c5.09-5,6.68-14.35,3.55-20.76Z" transform="translate(0 -31.4)"/><path class="cls-3" d="M219.44,65.6c-8-7.56-16.06-15.09-24.3-22.38l-1-.92-129.93,94,19.76,27.33Z" transform="translate(0 -31.4)"/><path class="cls-3" d="M241.25,86c-3-2.74-5.94-5.51-8.9-8.28L81.17,187l7.61,10.51L242,86.75Z" transform="translate(0 -31.4)"/><path class="cls-4" d="M286.79,125a18.81,18.81,0,0,0-.69-13.43L252.65,43.06A21,21,0,0,0,245,35l-30.33,87.89Z" transform="translate(0 -31.4)"/><path class="cls-4" d="M73,122.84,143.85,31.4H53.72a21.43,21.43,0,0,0-11.58,4Z" transform="translate(0 -31.4)"/><path class="cls-5" d="M245.57,35.36a21.48,21.48,0,0,0-11.58-4H143.85l70.82,91.44Z" transform="translate(0 -31.4)"/><path class="cls-6" d="M42.52,35.08a21,21,0,0,0-7.47,8L1.6,111.6A18.41,18.41,0,0,0,.51,123.38l73.42,1.93Z" transform="translate(0 -31.4)"/><path class="cls-7" d="M42.52,35.08a21,21,0,0,0-7.47,8L1.6,111.6A18.41,18.41,0,0,0,.51,123.38l73.42,1.93Z" transform="translate(0 -31.4)"/><path class="cls-8" d="M5.15,132.36,134.61,259.84a13.14,13.14,0,0,0,6.5,3.45L73,122.84H.38A18.18,18.18,0,0,0,5.15,132.36Z" transform="translate(0 -31.4)"/><path class="cls-6" d="M146.59,263.29a13.1,13.1,0,0,0,6.5-3.45L282.55,132.36a18.12,18.12,0,0,0,4.78-9.52H214.67Z" transform="translate(0 -31.4)"/><path class="cls-7" d="M146.59,263.29a13.1,13.1,0,0,0,6.5-3.45L282.55,132.36a18.12,18.12,0,0,0,4.78-9.52H214.67Z" transform="translate(0 -31.4)"/><path class="cls-9" d="M73,122.84l68.07,140.45a13.67,13.67,0,0,0,5.48,0l68.08-140.45Z" transform="translate(0 -31.4)"/></g></g></svg>